<svg width="32" height="22" viewBox="0 0 32 22" fill="none" xmlns="http://www.w3.org/2000/svg">
<path d="M7.13815 8.06354C10.9595 8.06354 14.0572 11.1614 14.0572 14.9826C14.0572 18.8039 10.9595 21.9017 7.13815 21.9017C3.31684 21.9017 0.21906 18.8039 0.21906 14.9826L0.188171 13.9942C0.188171 6.35156 6.38372 0.156006 14.0264 0.156006V4.10977C11.3862 4.10977 8.90394 5.13794 7.03702 7.00486C6.67766 7.36428 6.34968 7.74668 6.05383 8.14836C6.40714 8.09276 6.76921 8.06354 7.13815 8.06354ZM24.9301 8.06354C28.7514 8.06354 31.8492 11.1614 31.8492 14.9826C31.8492 18.8039 28.7514 21.9017 24.9301 21.9017C21.1088 21.9017 18.011 18.8039 18.011 14.9826L17.9801 13.9942C17.9801 6.35156 24.1756 0.156006 31.8183 0.156006V4.10977C29.1782 4.10977 26.6958 5.13794 24.829 7.00486C24.4695 7.36428 24.1416 7.74668 23.8457 8.14836C24.199 8.09276 24.5611 8.06354 24.9301 8.06354Z" fill="#FED84C"/>
</svg>
